<?xml version="1.0" encoding="UTF-8" standalone="no"?>
<svg
   xmlns:dc="http://purl.org/dc/elements/1.1/"
   xmlns:cc="http://creativecommons.org/ns#"
   xmlns:rdf="http://www.w3.org/1999/02/22-rdf-syntax-ns#"
   xmlns:svg="http://www.w3.org/2000/svg"
   xmlns="http://www.w3.org/2000/svg"
   xmlns:sodipodi="http://sodipodi.sourceforge.net/DTD/sodipodi-0.dtd"
   xmlns:inkscape="http://www.inkscape.org/namespaces/inkscape"
   viewBox="0 0 966.18128 235.39066"
   height="235.39066"
   width="966.18127"
   xml:space="preserve"
   id="svg2"
   version="1.1"
   sodipodi:docname="spider-full.svg"
   inkscape:version="0.92.4 (f8dce91, 2019-08-02)"><sodipodi:namedview
   pagecolor="#ffffff"
   bordercolor="#666666"
   borderopacity="1"
   objecttolerance="10"
   gridtolerance="10"
   guidetolerance="10"
   inkscape:pageopacity="0"
   inkscape:pageshadow="2"
   inkscape:window-width="2493"
   inkscape:window-height="1376"
   id="namedview35"
   showgrid="false"
   inkscape:zoom="1.3378351"
   inkscape:cx="709.93208"
   inkscape:cy="1.8191004"
   inkscape:window-x="2627"
   inkscape:window-y="27"
   inkscape:window-maximized="1"
   inkscape:current-layer="svg2" /><metadata
   id="metadata8"><rdf:RDF><cc:Work
       rdf:about=""><dc:format>image/svg+xml</dc:format><dc:type
         rdf:resource="http://purl.org/dc/dcmitype/StillImage" /><dc:title></dc:title></cc:Work></rdf:RDF></metadata><defs
   id="defs6">
</defs><g
   transform="matrix(1.3333333,0,0,1.3333333,-2,9.5884731e-5)"
   id="g14"
   style="fill:#2e3131;fill-opacity:1;stroke:#2e3131;stroke-opacity:1"><path
     id="path16"
     style="fill:#2e3131;fill-opacity:1;fill-rule:nonzero;stroke:#2e3131;stroke-width:0.75;stroke-linecap:butt;stroke-linejoin:miter;stroke-miterlimit:4;stroke-dasharray:none;stroke-opacity:1"
     d="m 23.664,65.242 c 12.016,-2.234 23.441,-4.539 47.828,6.832 7.598,4.688 9.363,9.969 17.121,28.074 l 0.141,2.895 C 80.141,96.992 72.527,80.484 66.051,77.641 59.57,74.797 39.242,67.301 23.664,65.242 Z"
     inkscape:connector-curvature="0" /></g><g
   transform="matrix(1.3333333,0,0,1.3333333,-2,9.5884731e-5)"
   id="g18"
   style="fill:#2e3131;fill-opacity:1;stroke:#2e3131;stroke-opacity:1"><path
     id="path20"
     style="fill:#2e3131;fill-opacity:1;fill-rule:nonzero;stroke:#2e3131;stroke-width:0.75;stroke-linecap:butt;stroke-linejoin:miter;stroke-miterlimit:4;stroke-dasharray:none;stroke-opacity:1"
     d="m 173.664,65.242 c -12.016,-2.234 -23.445,-4.539 -47.828,6.832 -7.602,4.688 -9.367,9.969 -17.121,28.074 l -0.141,2.895 c 8.614,-6.051 16.223,-22.559 22.703,-25.402 6.481,-2.844 26.809,-10.34 42.387,-12.399 z"
     inkscape:connector-curvature="0" /></g><g
   transform="matrix(1.3333333,0,0,1.3333333,-2,9.5884731e-5)"
   id="g22"
   style="fill:#2e3131;fill-opacity:1;stroke:#2e3131;stroke-opacity:1"><path
     id="path24"
     style="fill:#2e3131;fill-opacity:1;fill-rule:nonzero;stroke:#2e3131;stroke-width:0.75;stroke-linecap:butt;stroke-linejoin:miter;stroke-miterlimit:4;stroke-dasharray:none;stroke-opacity:1"
     d="m 87.613,91.059 -2.41,-5.493 C 81.93,41.012 63.574,26.406 55.875,19.273 67.824,19.617 88.73,46.965 89.355,62.398 89.98,77.832 90.16,85.301 90.16,85.301 Z"
     inkscape:connector-curvature="0" /></g><g
   transform="matrix(1.3333333,0,0,1.3333333,-2,9.5884731e-5)"
   id="g26"
   style="fill:#2e3131;fill-opacity:1;stroke:#2e3131;stroke-opacity:1"><path
     id="path28"
     style="fill:#2e3131;fill-opacity:1;fill-rule:nonzero;stroke:#2e3131;stroke-width:0.75;stroke-linecap:butt;stroke-linejoin:miter;stroke-miterlimit:4;stroke-dasharray:none;stroke-opacity:1"
     d="m 109.711,91.059 2.414,-5.493 c 3.273,-44.554 21.625,-59.16 29.328,-66.293 -11.949,0.344 -32.855,27.692 -33.48,43.125 -0.629,15.434 -0.805,22.903 -0.805,22.903 z"
     inkscape:connector-curvature="0" /></g><g
   transform="matrix(1.3333333,0,0,1.3333333,-2,9.5884731e-5)"
   id="g30"
   style="fill:#2e3131;fill-opacity:1;stroke:#2e3131;stroke-opacity:1"><path
     id="path32"
     style="fill:#2e3131;fill-opacity:1;fill-rule:nonzero;stroke:#2e3131;stroke-width:0.75;stroke-linecap:butt;stroke-linejoin:miter;stroke-miterlimit:4;stroke-dasharray:none;stroke-opacity:1"
     d="M 87.613,104.719 C 54.484,83.5 36.367,95.23 28.82,101.773 c 8.59,-2.398 30.887,-4.843 38.84,-0.269 7.949,4.578 13.731,7.711 21.965,6.832 0,0 -0.852,-2.875 -2.012,-3.617 z"
     inkscape:connector-curvature="0" /></g><g
   transform="matrix(1.3333333,0,0,1.3333333,-2,9.5884731e-5)"
   id="g34"
   style="fill:#2e3131;fill-opacity:1;stroke:#2e3131;stroke-opacity:1"><path
     id="path36"
     style="fill:#2e3131;fill-opacity:1;fill-rule:nonzero;stroke:#2e3131;stroke-width:0.75;stroke-linecap:butt;stroke-linejoin:miter;stroke-miterlimit:4;stroke-dasharray:none;stroke-opacity:1"
     d="m 109.711,104.719 c 33.133,-21.219 51.246,-9.489 58.797,-2.946 -8.594,-2.398 -30.887,-4.843 -38.84,-0.269 -7.953,4.578 -13.734,7.711 -21.965,6.832 0,0 0.848,-2.875 2.008,-3.617 z"
     inkscape:connector-curvature="0" /></g><g
   transform="matrix(1.3333333,0,0,1.3333333,-2,9.5884731e-5)"
   id="g38"
   style="fill:#2e3131;fill-opacity:1;stroke:#2e3131;stroke-opacity:1"><path
     id="path40"
     style="fill:#2e3131;fill-opacity:1;fill-rule:nonzero;stroke:#2e3131;stroke-width:2.25;stroke-linecap:butt;stroke-linejoin:miter;stroke-miterlimit:4;stroke-dasharray:none;stroke-opacity:1"
     d="m 109.445,97.285 c 0,8.692 -4.828,15.738 -10.781,15.738 -5.953,0 -10.781,-7.046 -10.781,-15.738 0,-8.691 4.828,-15.734 10.781,-15.734 5.953,0 10.781,7.043 10.781,15.734 z"
     inkscape:connector-curvature="0" /></g><g
   transform="matrix(1.3333333,0,0,1.3333333,-2,9.5884731e-5)"
   id="g42"
   style="fill:#2e3131;fill-opacity:1;stroke:#2e3131;stroke-opacity:1"><path
     id="path44"
     style="fill:#2e3131;fill-opacity:1;fill-rule:nonzero;stroke:#2e3131;stroke-width:2.25;stroke-linecap:butt;stroke-linejoin:miter;stroke-miterlimit:4;stroke-dasharray:none;stroke-opacity:1"
     d="m 111.656,130.5 c 0,10.391 -5.816,18.816 -12.992,18.816 -7.176,0 -12.992,-8.425 -12.992,-18.816 0,-10.391 5.816,-18.816 12.992,-18.816 7.176,0 12.992,8.425 12.992,18.816 z"
     inkscape:connector-curvature="0" /></g><g
   transform="matrix(1.3333333,0,0,1.3333333,-2,9.5884731e-5)"
   id="g46"
   style="fill:#2e3131;fill-opacity:1;stroke:#2e3131;stroke-opacity:1"><path
     id="path48"
     style="fill:#2e3131;fill-opacity:1;fill-rule:nonzero;stroke:#2e3131;stroke-width:0.75;stroke-linecap:butt;stroke-linejoin:miter;stroke-miterlimit:4;stroke-dasharray:none;stroke-opacity:1"
     d="m 91.43,110.477 c -30.75,14.363 -26.66,40.207 -31.875,47.949 9.515,-5.949 13.957,-28.137 28.66,-39.242 l 6.976,-5.707 z"
     inkscape:connector-curvature="0" /></g><g
   transform="matrix(1.3333333,0,0,1.3333333,-2,9.5884731e-5)"
   id="g50"
   style="fill:#2e3131;fill-opacity:1;stroke:#2e3131;stroke-opacity:1"><path
     id="path52"
     style="fill:#2e3131;fill-opacity:1;fill-rule:nonzero;stroke:#2e3131;stroke-width:0.75;stroke-linecap:butt;stroke-linejoin:miter;stroke-miterlimit:4;stroke-dasharray:none;stroke-opacity:1"
     d="m 105.898,110.477 c 30.75,14.363 26.657,40.207 31.875,47.949 -9.515,-5.949 -13.961,-28.137 -28.66,-39.242 l -6.976,-5.707 z"
     inkscape:connector-curvature="0" /></g><path
   id="path54"
   style="fill:#bed63a;fill-opacity:1;fill-rule:nonzero;stroke:none;stroke-width:1.33333325"
   d="M 40.639999,22.276002 H 20.317333 V 213.11466 h 20.318666 v 22.276 H 20.317333 C 9.0626664,235.39066 0,225.45866 0,213.12 V 22.276002 C 0,9.9373356 9.0626664,2.5514e-6 20.317333,2.5514e-6 H 40.635999 V 22.276002 Z"
   inkscape:connector-curvature="0" /><path
   id="path56"
   style="fill:#bed63a;fill-opacity:1;fill-rule:nonzero;stroke:none;stroke-width:1.33333325"
   d="m 222.98933,213.12 h 20.31733 V 22.276002 H 222.98933 V 2.5514e-6 h 20.31733 c 11.256,0 20.324,9.9373330486 20.324,22.2759994486 V 213.11466 c 0,12.344 -9.068,22.276 -20.324,22.276 h -20.31733 z"
   inkscape:connector-curvature="0" /><text
   id="text60"
   style="font-variant:normal;font-weight:normal;font-size:137.90092468px;font-family:Lato;-inkscape-font-specification:Lato-Regular;writing-mode:lr-tb;fill:#2e3131;fill-opacity:1;fill-rule:nonzero;stroke:none;stroke-width:1.33333325;"
   x="275.71136"
   y="167.09772"><tspan
     id="tspan58"
     y="167.09772"
     x="275.71136 350.45367 433.19421 471.80649 576.61121 656.18005 742.50598 777.80865 857.7912 890.33582"
     style="stroke-width:1.33333325;fill:#2e3131;fill-opacity:1;">SPIDER 2.0</tspan></text>

<path
   id="path62"
   style="fill:#2e3131;fill-opacity:1;fill-rule:nonzero;stroke:none;stroke-width:1.33333325"
   d="m 130.104,186.26 -12.55734,-3.98934 12.55734,-17.97333 12.568,17.97333 z"
   inkscape:connector-curvature="0" /><path
   id="path64"
   style="fill:#ffffff;fill-opacity:1;fill-rule:nonzero;stroke:none;stroke-width:1.33333325"
   d="m 130.104,164.29733 -1.04134,0.72934 11.568,16.55199 -10.52133,3.34267 -10.52133,-3.34267 11.56266,-16.55199 -1.04666,-0.72934 -1.04134,0.72934 1.04134,-0.72934 -1.04667,-0.73466 L 116.5,181.54133 c -0.22934,0.33333 -0.292,0.756 -0.16134,1.14133 0.13067,0.38534 0.43734,0.68667 0.82267,0.80667 l 12.55733,3.98933 c 0.25067,0.0787 0.52667,0.0787 0.776,0 l 12.56267,-3.98933 c 0.38533,-0.124 0.692,-0.42133 0.82267,-0.80667 0.13066,-0.38533 0.068,-0.808 -0.16134,-1.14133 l -12.568,-17.97866 c -0.23866,-0.33867 -0.624,-0.54134 -1.04666,-0.54134 -0.416,0 -0.80667,0.20267 -1.04667,0.54134 z"
   inkscape:connector-curvature="0" /><path
   id="path66"
   style="fill:#2e3131;fill-opacity:1;fill-rule:nonzero;stroke:none;stroke-width:1.33333325"
   d="M 117.54666,182.27066 130.104,164.29733 V 186.26 Z"
   inkscape:connector-curvature="0" /><path
   id="path68"
   style="fill:#ffffff;fill-opacity:1;fill-rule:nonzero;stroke:none;stroke-width:1.33333325"
   d="m 130.104,164.29733 h -1.276 V 184.516 l -9.24,-2.932 11.56266,-16.55733 -1.04666,-0.72934 h -1.276 1.276 L 129.05733,163.56267 116.5,181.54133 c -0.22934,0.33333 -0.292,0.756 -0.16134,1.14133 0.13067,0.38534 0.43734,0.68667 0.82267,0.80667 l 12.55733,3.98933 c 0.38534,0.12 0.812,0.0533 1.14134,-0.18666 0.328,-0.24 0.52533,-0.62534 0.52533,-1.032 v -21.96267 c 0,-0.56266 -0.35867,-1.052 -0.896,-1.21866 -0.53067,-0.16667 -1.10933,0.0253 -1.42667,0.484 z"
   inkscape:connector-curvature="0" /><text
   id="text60-3"
   style="font-variant:normal;font-weight:normal;font-size:37.18572998px;font-family:Lato;-inkscape-font-specification:Lato-Regular;writing-mode:lr-tb;fill:#bed63a;fill-opacity:1;fill-rule:nonzero;stroke:none;stroke-width:0.35954058"
   x="46.731617"
   y="66.562157"><tspan
     id="tspan58-6"
     x="182.12485 203.69257 212.4684"
     style="fill:#bed63a;fill-opacity:1;stroke-width:0.35954058">2.0</tspan></text>
</svg>