<?xml version="1.0" encoding="UTF-8" standalone="no"?>
<svg
   xmlns:dc="http://purl.org/dc/elements/1.1/"
   xmlns:cc="http://creativecommons.org/ns#"
   xmlns:rdf="http://www.w3.org/1999/02/22-rdf-syntax-ns#"
   xmlns:svg="http://www.w3.org/2000/svg"
   xmlns="http://www.w3.org/2000/svg"
   xmlns:sodipodi="http://sodipodi.sourceforge.net/DTD/sodipodi-0.dtd"
   xmlns:inkscape="http://www.inkscape.org/namespaces/inkscape"
   viewBox="0 0 966.18128 235.39066"
   height="235.39066"
   width="966.18127"
   xml:space="preserve"
   id="svg2"
   version="1.1"
   sodipodi:docname="spider-full-nofont.svg"
   inkscape:version="0.92.4 (5da689c313, 2019-01-14)"><sodipodi:namedview
   pagecolor="#ffffff"
   bordercolor="#666666"
   borderopacity="1"
   objecttolerance="10"
   gridtolerance="10"
   guidetolerance="10"
   inkscape:pageopacity="0"
   inkscape:pageshadow="2"
   inkscape:window-width="1850"
   inkscape:window-height="886"
   id="namedview35"
   showgrid="false"
   inkscape:zoom="1.3378351"
   inkscape:cx="711.42703"
   inkscape:cy="-1.5445428"
   inkscape:window-x="70"
   inkscape:window-y="27"
   inkscape:window-maximized="1"
   inkscape:current-layer="svg2" /><metadata
   id="metadata8"><rdf:RDF><cc:Work
       rdf:about=""><dc:format>image/svg+xml</dc:format><dc:type
         rdf:resource="http://purl.org/dc/dcmitype/StillImage" /><dc:title /></cc:Work></rdf:RDF></metadata><defs
   id="defs6">
</defs><g
   transform="matrix(1.3333333,0,0,1.3333333,-2,9.5884731e-5)"
   id="g14"
   style="fill:#2e3131;fill-opacity:1;stroke:#2e3131;stroke-opacity:1"><path
     id="path16"
     style="fill:#2e3131;fill-opacity:1;fill-rule:nonzero;stroke:#2e3131;stroke-width:0.75;stroke-linecap:butt;stroke-linejoin:miter;stroke-miterlimit:4;stroke-dasharray:none;stroke-opacity:1"
     d="m 23.664,65.242 c 12.016,-2.234 23.441,-4.539 47.828,6.832 7.598,4.688 9.363,9.969 17.121,28.074 l 0.141,2.895 C 80.141,96.992 72.527,80.484 66.051,77.641 59.57,74.797 39.242,67.301 23.664,65.242 Z"
     inkscape:connector-curvature="0" /></g><g
   transform="matrix(1.3333333,0,0,1.3333333,-2,9.5884731e-5)"
   id="g18"
   style="fill:#2e3131;fill-opacity:1;stroke:#2e3131;stroke-opacity:1"><path
     id="path20"
     style="fill:#2e3131;fill-opacity:1;fill-rule:nonzero;stroke:#2e3131;stroke-width:0.75;stroke-linecap:butt;stroke-linejoin:miter;stroke-miterlimit:4;stroke-dasharray:none;stroke-opacity:1"
     d="m 173.664,65.242 c -12.016,-2.234 -23.445,-4.539 -47.828,6.832 -7.602,4.688 -9.367,9.969 -17.121,28.074 l -0.141,2.895 c 8.614,-6.051 16.223,-22.559 22.703,-25.402 6.481,-2.844 26.809,-10.34 42.387,-12.399 z"
     inkscape:connector-curvature="0" /></g><g
   transform="matrix(1.3333333,0,0,1.3333333,-2,9.5884731e-5)"
   id="g22"
   style="fill:#2e3131;fill-opacity:1;stroke:#2e3131;stroke-opacity:1"><path
     id="path24"
     style="fill:#2e3131;fill-opacity:1;fill-rule:nonzero;stroke:#2e3131;stroke-width:0.75;stroke-linecap:butt;stroke-linejoin:miter;stroke-miterlimit:4;stroke-dasharray:none;stroke-opacity:1"
     d="m 87.613,91.059 -2.41,-5.493 C 81.93,41.012 63.574,26.406 55.875,19.273 67.824,19.617 88.73,46.965 89.355,62.398 89.98,77.832 90.16,85.301 90.16,85.301 Z"
     inkscape:connector-curvature="0" /></g><g
   transform="matrix(1.3333333,0,0,1.3333333,-2,9.5884731e-5)"
   id="g26"
   style="fill:#2e3131;fill-opacity:1;stroke:#2e3131;stroke-opacity:1"><path
     id="path28"
     style="fill:#2e3131;fill-opacity:1;fill-rule:nonzero;stroke:#2e3131;stroke-width:0.75;stroke-linecap:butt;stroke-linejoin:miter;stroke-miterlimit:4;stroke-dasharray:none;stroke-opacity:1"
     d="m 109.711,91.059 2.414,-5.493 c 3.273,-44.554 21.625,-59.16 29.328,-66.293 -11.949,0.344 -32.855,27.692 -33.48,43.125 -0.629,15.434 -0.805,22.903 -0.805,22.903 z"
     inkscape:connector-curvature="0" /></g><g
   transform="matrix(1.3333333,0,0,1.3333333,-2,9.5884731e-5)"
   id="g30"
   style="fill:#2e3131;fill-opacity:1;stroke:#2e3131;stroke-opacity:1"><path
     id="path32"
     style="fill:#2e3131;fill-opacity:1;fill-rule:nonzero;stroke:#2e3131;stroke-width:0.75;stroke-linecap:butt;stroke-linejoin:miter;stroke-miterlimit:4;stroke-dasharray:none;stroke-opacity:1"
     d="M 87.613,104.719 C 54.484,83.5 36.367,95.23 28.82,101.773 c 8.59,-2.398 30.887,-4.843 38.84,-0.269 7.949,4.578 13.731,7.711 21.965,6.832 0,0 -0.852,-2.875 -2.012,-3.617 z"
     inkscape:connector-curvature="0" /></g><g
   transform="matrix(1.3333333,0,0,1.3333333,-2,9.5884731e-5)"
   id="g34"
   style="fill:#2e3131;fill-opacity:1;stroke:#2e3131;stroke-opacity:1"><path
     id="path36"
     style="fill:#2e3131;fill-opacity:1;fill-rule:nonzero;stroke:#2e3131;stroke-width:0.75;stroke-linecap:butt;stroke-linejoin:miter;stroke-miterlimit:4;stroke-dasharray:none;stroke-opacity:1"
     d="m 109.711,104.719 c 33.133,-21.219 51.246,-9.489 58.797,-2.946 -8.594,-2.398 -30.887,-4.843 -38.84,-0.269 -7.953,4.578 -13.734,7.711 -21.965,6.832 0,0 0.848,-2.875 2.008,-3.617 z"
     inkscape:connector-curvature="0" /></g><g
   transform="matrix(1.3333333,0,0,1.3333333,-2,9.5884731e-5)"
   id="g38"
   style="fill:#2e3131;fill-opacity:1;stroke:#2e3131;stroke-opacity:1"><path
     id="path40"
     style="fill:#2e3131;fill-opacity:1;fill-rule:nonzero;stroke:#2e3131;stroke-width:2.25;stroke-linecap:butt;stroke-linejoin:miter;stroke-miterlimit:4;stroke-dasharray:none;stroke-opacity:1"
     d="m 109.445,97.285 c 0,8.692 -4.828,15.738 -10.781,15.738 -5.953,0 -10.781,-7.046 -10.781,-15.738 0,-8.691 4.828,-15.734 10.781,-15.734 5.953,0 10.781,7.043 10.781,15.734 z"
     inkscape:connector-curvature="0" /></g><g
   transform="matrix(1.3333333,0,0,1.3333333,-2,9.5884731e-5)"
   id="g42"
   style="fill:#2e3131;fill-opacity:1;stroke:#2e3131;stroke-opacity:1"><path
     id="path44"
     style="fill:#2e3131;fill-opacity:1;fill-rule:nonzero;stroke:#2e3131;stroke-width:2.25;stroke-linecap:butt;stroke-linejoin:miter;stroke-miterlimit:4;stroke-dasharray:none;stroke-opacity:1"
     d="m 111.656,130.5 c 0,10.391 -5.816,18.816 -12.992,18.816 -7.176,0 -12.992,-8.425 -12.992,-18.816 0,-10.391 5.816,-18.816 12.992,-18.816 7.176,0 12.992,8.425 12.992,18.816 z"
     inkscape:connector-curvature="0" /></g><g
   transform="matrix(1.3333333,0,0,1.3333333,-2,9.5884731e-5)"
   id="g46"
   style="fill:#2e3131;fill-opacity:1;stroke:#2e3131;stroke-opacity:1"><path
     id="path48"
     style="fill:#2e3131;fill-opacity:1;fill-rule:nonzero;stroke:#2e3131;stroke-width:0.75;stroke-linecap:butt;stroke-linejoin:miter;stroke-miterlimit:4;stroke-dasharray:none;stroke-opacity:1"
     d="m 91.43,110.477 c -30.75,14.363 -26.66,40.207 -31.875,47.949 9.515,-5.949 13.957,-28.137 28.66,-39.242 l 6.976,-5.707 z"
     inkscape:connector-curvature="0" /></g><g
   transform="matrix(1.3333333,0,0,1.3333333,-2,9.5884731e-5)"
   id="g50"
   style="fill:#2e3131;fill-opacity:1;stroke:#2e3131;stroke-opacity:1"><path
     id="path52"
     style="fill:#2e3131;fill-opacity:1;fill-rule:nonzero;stroke:#2e3131;stroke-width:0.75;stroke-linecap:butt;stroke-linejoin:miter;stroke-miterlimit:4;stroke-dasharray:none;stroke-opacity:1"
     d="m 105.898,110.477 c 30.75,14.363 26.657,40.207 31.875,47.949 -9.515,-5.949 -13.961,-28.137 -28.66,-39.242 l -6.976,-5.707 z"
     inkscape:connector-curvature="0" /></g><path
   id="path54"
   style="fill:#bed63a;fill-opacity:1;fill-rule:nonzero;stroke:none;stroke-width:1.33333325"
   d="M 40.639999,22.276002 H 20.317333 V 213.11466 h 20.318666 v 22.276 H 20.317333 C 9.0626664,235.39066 0,225.45866 0,213.12 V 22.276002 C 0,9.9373356 9.0626664,2.5514e-6 20.317333,2.5514e-6 H 40.635999 V 22.276002 Z"
   inkscape:connector-curvature="0" /><path
   id="path56"
   style="fill:#bed63a;fill-opacity:1;fill-rule:nonzero;stroke:none;stroke-width:1.33333325"
   d="m 222.98933,213.12 h 20.31733 V 22.276002 H 222.98933 V 2.5514e-6 h 20.31733 c 11.256,0 20.324,9.9373330486 20.324,22.2759994486 V 213.11466 c 0,12.344 -9.068,22.276 -20.324,22.276 h -20.31733 z"
   inkscape:connector-curvature="0" /><g
   aria-label="SPIDER 2.0"
   style="font-variant:normal;font-weight:normal;font-size:137.90092468px;font-family:Lato;-inkscape-font-specification:Lato-Regular;writing-mode:lr-tb;fill:#2e3131;fill-opacity:1;fill-rule:nonzero;stroke:none;stroke-width:1.33333325"
   id="text60"><path
     d="m 338.86999,83.736608 q -0.62056,1.034257 -1.37901,1.585861 -0.68951,0.482653 -1.72376,0.482653 -1.17216,0 -2.75802,-1.172158 -1.58586,-1.172158 -3.99913,-2.551167 -2.34431,-1.447959 -5.72289,-2.620117 -3.30962,-1.172158 -8.0672,-1.172158 -4.48178,0 -7.9293,1.241108 -3.37858,1.172158 -5.72289,3.240672 -2.27537,2.068514 -3.44752,4.895483 -1.17216,2.758018 -1.17216,5.99869 0,4.137028 1.99956,6.895045 2.06851,2.68907 5.37814,4.61968 3.37857,1.93062 7.58455,3.37857 4.27493,1.37901 8.68776,2.89592 4.48178,1.51691 8.68775,3.44753 4.27493,1.86166 7.58455,4.75758 3.37858,2.89592 5.37814,7.1019 2.06851,4.20598 2.06851,10.34257 0,6.48134 -2.20641,12.20423 -2.20641,5.65394 -6.48134,9.85991 -4.20598,4.20598 -10.41152,6.61925 -6.13659,2.41326 -13.99695,2.41326 -9.65306,0 -17.51341,-3.44752 -7.86036,-3.51647 -13.44534,-9.44621 l 3.86122,-6.34344 q 0.5516,-0.75846 1.31006,-1.24111 0.82741,-0.55161 1.79271,-0.55161 0.89636,0 1.99957,0.75846 1.17215,0.6895 2.62011,1.79271 1.44796,1.10321 3.30963,2.41327 1.86166,1.31006 4.20597,2.41326 2.41327,1.10321 5.44709,1.86167 3.03382,0.6895 6.8261,0.6895 4.75758,0 8.4809,-1.31006 3.72333,-1.31006 6.27449,-3.65437 2.62012,-2.41327 3.99913,-5.72289 1.37901,-3.30962 1.37901,-7.3777 0,-4.48178 -2.06851,-7.30875 -1.99957,-2.89592 -5.30919,-4.82653 -3.30962,-1.93062 -7.58455,-3.24067 -4.27493,-1.37901 -8.68776,-2.75802 -4.41283,-1.44796 -8.68776,-3.30962 -4.27492,-1.86167 -7.58455,-4.82654 -3.30962,-2.96487 -5.37813,-7.3777 -1.99957,-4.48178 -1.99957,-11.03207 0,-5.240236 1.99957,-10.135718 2.06851,-4.895483 5.92974,-8.687759 3.93017,-3.792275 9.58411,-6.06764 5.72289,-2.275366 13.10059,-2.275366 8.27405,0 15.0312,2.620118 6.8261,2.620117 11.99738,7.584551 z"
     style="fill:#2e3131;fill-opacity:1;stroke-width:1.33333325"
     id="path37" /><path
     d="m 376.37905,130.14027 v 36.95745 H 363.07161 V 68.291705 h 29.16604 q 9.37727,0 16.27231,2.206415 6.964,2.137464 11.51473,6.136591 4.55073,3.999127 6.75715,9.653064 2.27536,5.653938 2.27536,12.617935 0,6.89505 -2.41326,12.61793 -2.41327,5.72289 -7.1019,9.85992 -4.61968,4.13703 -11.51473,6.48134 -6.8261,2.27537 -15.78966,2.27537 z m 0,-10.61837 h 15.8586 q 5.72289,0 10.06677,-1.51691 4.41283,-1.51691 7.3777,-4.20598 3.03382,-2.75802 4.55073,-6.55029 1.51691,-3.79228 1.51691,-8.34301 0,-9.446213 -5.86079,-14.755399 -5.79184,-5.309186 -17.65132,-5.309186 h -15.8586 z"
     style="fill:#2e3131;fill-opacity:1;stroke-width:1.33333325"
     id="path39" /><path
     d="M 459.18854,167.09772 H 445.81215 V 68.291705 h 13.37639 z"
     style="fill:#2e3131;fill-opacity:1;stroke-width:1.33333325"
     id="path41" /><path
     d="m 570.0609,117.72919 q 0,11.10102 -3.51648,20.20248 -3.51647,9.10146 -9.92886,15.58281 -6.4124,6.48134 -15.44491,10.06676 -8.96356,3.51648 -19.85773,3.51648 h -36.8885 V 68.291705 h 36.8885 q 10.89417,0 19.85773,3.585424 9.03251,3.516473 15.44491,10.066767 6.41239,6.481344 9.92886,15.582805 3.51648,9.101459 3.51648,20.202489 z m -13.72115,0 q 0,-9.10146 -2.48221,-16.27231 -2.48222,-7.170851 -7.03295,-12.135284 -4.55073,-4.964434 -11.03207,-7.584551 -6.48135,-2.620118 -14.4796,-2.620118 h -23.51211 v 77.155563 h 23.51211 q 7.99825,0 14.4796,-2.62011 6.48134,-2.62012 11.03207,-7.5156 4.55073,-4.96444 7.03295,-12.13528 2.48221,-7.17085 2.48221,-16.27231 z"
     style="fill:#2e3131;fill-opacity:1;stroke-width:1.33333325"
     id="path43" /><path
     d="M 650.1124,68.291705 V 79.185878 H 602.60553 V 112.0063 h 38.47436 v 10.48047 h -38.47436 v 33.71677 h 47.57582 l -0.0689,10.89418 H 589.22914 V 68.291705 Z"
     style="fill:#2e3131;fill-opacity:1;stroke-width:1.33333325"
     id="path45" /><path
     d="m 682.10543,125.86534 v 41.23238 H 668.79799 V 68.291705 h 27.92494 q 9.37726,0 16.20335,1.930613 6.8261,1.861662 11.23893,5.447086 4.48178,3.585424 6.61924,8.687758 2.13747,5.033384 2.13747,11.307876 0,5.240232 -1.65481,9.790962 -1.65481,4.55073 -4.82654,8.20511 -3.10277,3.58542 -7.6535,6.20554 -4.48178,2.55117 -10.20466,3.79228 2.62011,1.65481 4.41282,4.20597 l 28.8213,39.23282 h -11.85948 q -3.65438,0 -5.37814,-2.82697 l -25.64957,-35.30264 q -1.17216,-1.65481 -2.55117,-2.34431 -1.31006,-0.75846 -4.13702,-0.75846 z m 0,-9.72201 h 14.06589 q 5.79184,0 10.20467,-1.37901 4.48178,-1.44796 7.44665,-3.99913 3.03382,-2.62012 4.55073,-6.20554 1.51691,-3.58543 1.51691,-7.929305 0,-8.825659 -5.79184,-13.307439 -5.79184,-4.481781 -17.37551,-4.481781 h -14.6175 z"
     style="fill:#2e3131;fill-opacity:1;stroke-width:1.33333325"
     id="path47" /><path
     d="m 818.55838,67.188497 q 6.27449,0 11.72158,1.861663 5.44708,1.861662 9.44621,5.447086 3.99913,3.516474 6.27449,8.618808 2.27537,5.102334 2.27537,11.583678 0,5.516038 -1.65481,10.273618 -1.65481,4.68863 -4.48178,8.96356 -2.82697,4.27493 -6.5503,8.34301 -3.65437,4.06807 -7.7914,8.2051 l -26.06327,26.61488 q 2.75801,-0.75845 5.58498,-1.17216 2.82697,-0.48265 5.44709,-0.48265 h 33.09622 q 1.99956,0 3.17172,1.17216 1.17216,1.17215 1.17216,3.03382 v 7.44665 H 784.29 v -4.20598 q 0,-1.31006 0.5516,-2.68907 0.55161,-1.37901 1.72376,-2.55117 l 31.64827,-31.78616 q 3.93017,-3.99913 7.17084,-7.6535 3.24068,-3.72333 5.51604,-7.44665 2.27537,-3.72333 3.51647,-7.5156 1.24111,-3.861227 1.24111,-8.205106 0,-4.343879 -1.37901,-7.584551 -1.37901,-3.309622 -3.79227,-5.447086 -2.34432,-2.137465 -5.58499,-3.171722 -3.24067,-1.103207 -6.964,-1.103207 -3.79227,0 -6.96399,1.103207 -3.17172,1.103208 -5.65394,3.102771 -2.41327,1.930613 -4.06808,4.619681 -1.65481,2.689068 -2.34431,5.92974 -0.82741,2.413266 -2.27537,3.240672 -1.37901,0.758455 -3.93018,0.413703 l -6.41239,-1.103208 q 0.96531,-6.757145 3.72333,-11.92843 2.82697,-5.240235 7.03294,-8.756709 4.27493,-3.516473 9.72202,-5.309185 5.44709,-1.861663 11.79053,-1.861663 z"
     style="fill:#2e3131;fill-opacity:1;stroke-width:1.33333325"
     id="path49" /><path
     d="m 865.4447,159.51317 q 0,-1.79272 0.62055,-3.37858 0.68951,-1.58586 1.79272,-2.75801 1.17215,-1.17216 2.75801,-1.86167 1.58587,-0.6895 3.37858,-0.6895 1.79271,0 3.37857,0.6895 1.58586,0.68951 2.75802,1.86167 1.17216,1.17215 1.86166,2.75801 0.68951,1.58586 0.68951,3.37858 0,1.86166 -0.68951,3.44752 -0.6895,1.51691 -1.86166,2.68907 -1.17216,1.17216 -2.75802,1.79271 -1.58586,0.6895 -3.37857,0.6895 -1.79271,0 -3.37858,-0.6895 -1.58586,-0.62055 -2.75801,-1.79271 -1.10321,-1.17216 -1.79272,-2.68907 -0.62055,-1.58586 -0.62055,-3.44752 z"
     style="fill:#2e3131;fill-opacity:1;stroke-width:1.33333325"
     id="path51" /><path
     d="m 966.18132,117.72919 q 0,12.96268 -2.82696,22.47785 -2.75802,9.44621 -7.58456,15.65175 -4.82653,6.20554 -11.44577,9.23936 -6.5503,3.03382 -14.0659,3.03382 -7.58455,0 -14.13484,-3.03382 -6.48135,-3.03382 -11.30788,-9.23936 -4.82653,-6.20554 -7.58455,-15.65175 -2.75802,-9.51517 -2.75802,-22.47785 0,-12.96269 2.75802,-22.477854 2.75802,-9.515164 7.58455,-15.720706 4.82653,-6.274492 11.30788,-9.308312 6.55029,-3.033821 14.13484,-3.033821 7.5156,0 14.0659,3.033821 6.61924,3.03382 11.44577,9.308312 4.82654,6.205542 7.58456,15.720706 2.82696,9.515164 2.82696,22.477854 z m -12.75583,0 q 0,-11.30788 -1.93061,-18.961381 -1.86167,-7.722452 -5.10234,-12.411083 -3.17172,-4.688632 -7.3777,-6.688195 -4.20598,-2.068514 -8.75671,-2.068514 -4.55073,0 -8.75671,2.068514 -4.20597,1.999563 -7.3777,6.688195 -3.17172,4.688631 -5.10233,12.411083 -1.86166,7.653501 -1.86166,18.961381 0,11.30787 1.86166,18.96137 1.93061,7.6535 5.10233,12.34214 3.17173,4.68863 7.3777,6.75714 4.20598,1.99956 8.75671,1.99956 4.55073,0 8.75671,-1.99956 4.20598,-2.06851 7.3777,-6.75714 3.24067,-4.68864 5.10234,-12.34214 1.93061,-7.6535 1.93061,-18.96137 z"
     style="fill:#2e3131;fill-opacity:1;stroke-width:1.33333325"
     id="path53" /></g>


<path
   id="path62"
   style="fill:#2e3131;fill-opacity:1;fill-rule:nonzero;stroke:none;stroke-width:1.33333325"
   d="m 130.104,186.26 -12.55734,-3.98934 12.55734,-17.97333 12.568,17.97333 z"
   inkscape:connector-curvature="0" /><path
   id="path64"
   style="fill:#ffffff;fill-opacity:1;fill-rule:nonzero;stroke:none;stroke-width:1.33333325"
   d="m 130.104,164.29733 -1.04134,0.72934 11.568,16.55199 -10.52133,3.34267 -10.52133,-3.34267 11.56266,-16.55199 -1.04666,-0.72934 -1.04134,0.72934 1.04134,-0.72934 -1.04667,-0.73466 L 116.5,181.54133 c -0.22934,0.33333 -0.292,0.756 -0.16134,1.14133 0.13067,0.38534 0.43734,0.68667 0.82267,0.80667 l 12.55733,3.98933 c 0.25067,0.0787 0.52667,0.0787 0.776,0 l 12.56267,-3.98933 c 0.38533,-0.124 0.692,-0.42133 0.82267,-0.80667 0.13066,-0.38533 0.068,-0.808 -0.16134,-1.14133 l -12.568,-17.97866 c -0.23866,-0.33867 -0.624,-0.54134 -1.04666,-0.54134 -0.416,0 -0.80667,0.20267 -1.04667,0.54134 z"
   inkscape:connector-curvature="0" /><path
   id="path66"
   style="fill:#2e3131;fill-opacity:1;fill-rule:nonzero;stroke:none;stroke-width:1.33333325"
   d="M 117.54666,182.27066 130.104,164.29733 V 186.26 Z"
   inkscape:connector-curvature="0" /><path
   id="path68"
   style="fill:#ffffff;fill-opacity:1;fill-rule:nonzero;stroke:none;stroke-width:1.33333325"
   d="m 130.104,164.29733 h -1.276 V 184.516 l -9.24,-2.932 11.56266,-16.55733 -1.04666,-0.72934 h -1.276 1.276 L 129.05733,163.56267 116.5,181.54133 c -0.22934,0.33333 -0.292,0.756 -0.16134,1.14133 0.13067,0.38534 0.43734,0.68667 0.82267,0.80667 l 12.55733,3.98933 c 0.38534,0.12 0.812,0.0533 1.14134,-0.18666 0.328,-0.24 0.52533,-0.62534 0.52533,-1.032 v -21.96267 c 0,-0.56266 -0.35867,-1.052 -0.896,-1.21866 -0.53067,-0.16667 -1.10933,0.0253 -1.42667,0.484 z"
   inkscape:connector-curvature="0" /><g
   aria-label="2.0"
   style="font-variant:normal;font-weight:normal;font-size:37.18572998px;font-family:Lato;-inkscape-font-specification:Lato-Regular;writing-mode:lr-tb;fill:#bed63a;fill-opacity:1;fill-rule:nonzero;stroke:none;stroke-width:0.35954058"
   id="text60-3"><path
     d="m 193.11323,39.621095 q 1.69195,0 3.16079,0.502008 1.46883,0.502007 2.54722,1.468836 1.07839,0.948236 1.69195,2.324108 0.61357,1.375872 0.61357,3.123601 0,1.48743 -0.44623,2.770337 -0.44623,1.264315 -1.20854,2.417073 -0.76231,1.152757 -1.76632,2.249736 -0.98542,1.096979 -2.101,2.212551 l -7.0281,7.176846 q 0.74372,-0.204521 1.50602,-0.316078 0.76231,-0.130151 1.46884,-0.130151 h 8.92458 q 0.53919,0 0.85527,0.316079 0.31608,0.316079 0.31608,0.818086 v 2.00803 h -17.77478 v -1.134165 q 0,-0.353265 0.14874,-0.725122 0.14874,-0.371857 0.46482,-0.687936 l 8.53413,-8.571311 q 1.05979,-1.078386 1.93365,-2.063808 0.87387,-1.004014 1.48743,-2.008029 0.61357,-1.004015 0.94824,-2.026622 0.33467,-1.041201 0.33467,-2.212551 0,-1.171351 -0.37186,-2.045215 -0.37185,-0.892458 -1.0226,-1.468837 -0.63216,-0.576379 -1.50603,-0.855272 -0.87386,-0.297485 -1.87788,-0.297485 -1.0226,0 -1.87787,0.297485 -0.85528,0.297486 -1.52462,0.836679 -0.65075,0.520601 -1.09698,1.245722 -0.44623,0.725122 -0.63216,1.598987 -0.22311,0.65075 -0.61356,0.873864 -0.37186,0.204522 -1.05979,0.111558 l -1.72914,-0.297486 q 0.2603,-1.822101 1.00401,-3.216566 0.76231,-1.413058 1.89648,-2.361294 1.15275,-0.948236 2.62159,-1.43165 1.46884,-0.502008 3.17938,-0.502008 z"
     style="fill:#bed63a;fill-opacity:1;stroke-width:0.35954058"
     id="path57" /><path
     d="m 205.75637,64.516942 q 0,-0.483415 0.16734,-0.911051 0.18593,-0.427636 0.48341,-0.743714 0.31608,-0.316079 0.74372,-0.502008 0.42763,-0.185928 0.91105,-0.185928 0.48341,0 0.91105,0.185928 0.42764,0.185929 0.74371,0.502008 0.31608,0.316078 0.50201,0.743714 0.18593,0.427636 0.18593,0.911051 0,0.502007 -0.18593,0.929643 -0.18593,0.409043 -0.50201,0.725122 -0.31607,0.316078 -0.74371,0.483414 -0.42764,0.185929 -0.91105,0.185929 -0.48342,0 -0.91105,-0.185929 -0.42764,-0.167336 -0.74372,-0.483414 -0.29748,-0.316079 -0.48341,-0.725122 -0.16734,-0.427636 -0.16734,-0.929643 z"
     style="fill:#bed63a;fill-opacity:1;stroke-width:0.35954058"
     id="path59" /><path
     d="m 232.92055,53.249665 q 0,3.495459 -0.76231,6.061274 -0.74371,2.547223 -2.04521,4.220581 -1.3015,1.673358 -3.08642,2.491444 -1.76632,0.818086 -3.79294,0.818086 -2.04522,0 -3.81154,-0.818086 -1.74773,-0.818086 -3.04923,-2.491444 -1.3015,-1.673358 -2.04521,-4.220581 -0.74372,-2.565815 -0.74372,-6.061274 0,-3.495458 0.74372,-6.061274 0.74371,-2.565815 2.04521,-4.239173 1.3015,-1.691951 3.04923,-2.510037 1.76632,-0.818086 3.81154,-0.818086 2.02662,0 3.79294,0.818086 1.78492,0.818086 3.08642,2.510037 1.3015,1.673358 2.04521,4.239173 0.76231,2.565816 0.76231,6.061274 z m -3.43968,0 q 0,-3.04923 -0.5206,-5.113038 -0.50201,-2.0824 -1.37587,-3.346715 -0.85527,-1.264315 -1.98944,-1.803508 -1.13416,-0.557786 -2.36129,-0.557786 -1.22713,0 -2.3613,0.557786 -1.13416,0.539193 -1.98943,1.803508 -0.85527,1.264315 -1.37587,3.346715 -0.50201,2.063808 -0.50201,5.113038 0,3.04923 0.50201,5.113038 0.5206,2.063808 1.37587,3.328123 0.85527,1.264315 1.98943,1.822101 1.13417,0.539193 2.3613,0.539193 1.22713,0 2.36129,-0.539193 1.13417,-0.557786 1.98944,-1.822101 0.87386,-1.264315 1.37587,-3.328123 0.5206,-2.063808 0.5206,-5.113038 z"
     style="fill:#bed63a;fill-opacity:1;stroke-width:0.35954058"
     id="path61" /></g>

</svg>