<?xml version="1.0" encoding="UTF-8" standalone="no"?>
<svg
   xmlns:dc="http://purl.org/dc/elements/1.1/"
   xmlns:cc="http://creativecommons.org/ns#"
   xmlns:rdf="http://www.w3.org/1999/02/22-rdf-syntax-ns#"
   xmlns:svg="http://www.w3.org/2000/svg"
   xmlns="http://www.w3.org/2000/svg"
   viewBox="0 0 966.18128 235.39066"
   height="235.39066"
   width="966.18127"
   xml:space="preserve"
   id="svg2"
   version="1.1"><metadata
     id="metadata8"><rdf:RDF><cc:Work
         rdf:about=""><dc:format>image/svg+xml</dc:format><dc:type
           rdf:resource="http://purl.org/dc/dcmitype/StillImage" /></cc:Work></rdf:RDF></metadata><defs
     id="defs6" /><g
     transform="matrix(1.3333333,0,0,-1.3333333,0,235.38933)"
     id="g10"><g
       id="g12"><g
         transform="matrix(1,0,0,-1,0,176.54193)"
         id="g14"><path
           id="path16"
           style="fill:#000000;fill-opacity:1;fill-rule:nonzero;stroke:#000000;stroke-width:0.75;stroke-linecap:butt;stroke-linejoin:miter;stroke-miterlimit:4;stroke-dasharray:none;stroke-opacity:1"
           d="m 23.664,65.242 c 12.016,-2.234 23.441,-4.539 47.828,6.832 7.598,4.688 9.363,9.969 17.121,28.074 l 0.141,2.895 C 80.141,96.992 72.527,80.484 66.051,77.641 59.57,74.797 39.242,67.301 23.664,65.242 Z" /></g><g
         transform="matrix(1,0,0,-1,0,176.54193)"
         id="g18"><path
           id="path20"
           style="fill:#000000;fill-opacity:1;fill-rule:nonzero;stroke:#000000;stroke-width:0.75;stroke-linecap:butt;stroke-linejoin:miter;stroke-miterlimit:4;stroke-dasharray:none;stroke-opacity:1"
           d="m 173.664,65.242 c -12.016,-2.234 -23.445,-4.539 -47.828,6.832 -7.602,4.688 -9.367,9.969 -17.121,28.074 l -0.141,2.895 c 8.614,-6.051 16.223,-22.559 22.703,-25.402 6.481,-2.844 26.809,-10.34 42.387,-12.399 z" /></g><g
         transform="matrix(1,0,0,-1,0,176.54193)"
         id="g22"><path
           id="path24"
           style="fill:#000000;fill-opacity:1;fill-rule:nonzero;stroke:#000000;stroke-width:0.75;stroke-linecap:butt;stroke-linejoin:miter;stroke-miterlimit:4;stroke-dasharray:none;stroke-opacity:1"
           d="m 87.613,91.059 -2.41,-5.493 C 81.93,41.012 63.574,26.406 55.875,19.273 67.824,19.617 88.73,46.965 89.355,62.398 89.98,77.832 90.16,85.301 90.16,85.301 Z" /></g><g
         transform="matrix(1,0,0,-1,0,176.54193)"
         id="g26"><path
           id="path28"
           style="fill:#000000;fill-opacity:1;fill-rule:nonzero;stroke:#000000;stroke-width:0.75;stroke-linecap:butt;stroke-linejoin:miter;stroke-miterlimit:4;stroke-dasharray:none;stroke-opacity:1"
           d="m 109.711,91.059 2.414,-5.493 c 3.273,-44.554 21.625,-59.16 29.328,-66.293 -11.949,0.344 -32.855,27.692 -33.48,43.125 -0.629,15.434 -0.805,22.903 -0.805,22.903 z" /></g><g
         transform="matrix(1,0,0,-1,0,176.54193)"
         id="g30"><path
           id="path32"
           style="fill:#000000;fill-opacity:1;fill-rule:nonzero;stroke:#000000;stroke-width:0.75;stroke-linecap:butt;stroke-linejoin:miter;stroke-miterlimit:4;stroke-dasharray:none;stroke-opacity:1"
           d="M 87.613,104.719 C 54.484,83.5 36.367,95.23 28.82,101.773 c 8.59,-2.398 30.887,-4.843 38.84,-0.269 7.949,4.578 13.731,7.711 21.965,6.832 0,0 -0.852,-2.875 -2.012,-3.617 z" /></g><g
         transform="matrix(1,0,0,-1,0,176.54193)"
         id="g34"><path
           id="path36"
           style="fill:#000000;fill-opacity:1;fill-rule:nonzero;stroke:#000000;stroke-width:0.75;stroke-linecap:butt;stroke-linejoin:miter;stroke-miterlimit:4;stroke-dasharray:none;stroke-opacity:1"
           d="m 109.711,104.719 c 33.133,-21.219 51.246,-9.489 58.797,-2.946 -8.594,-2.398 -30.887,-4.843 -38.84,-0.269 -7.953,4.578 -13.734,7.711 -21.965,6.832 0,0 0.848,-2.875 2.008,-3.617 z" /></g><g
         transform="matrix(1,0,0,-1,0,176.54193)"
         id="g38"><path
           id="path40"
           style="fill:#000000;fill-opacity:1;fill-rule:nonzero;stroke:#000000;stroke-width:2.25;stroke-linecap:butt;stroke-linejoin:miter;stroke-miterlimit:4;stroke-dasharray:none;stroke-opacity:1"
           d="m 109.445,97.285 c 0,8.692 -4.828,15.738 -10.781,15.738 -5.953,0 -10.781,-7.046 -10.781,-15.738 0,-8.691 4.828,-15.734 10.781,-15.734 5.953,0 10.781,7.043 10.781,15.734 z" /></g><g
         transform="matrix(1,0,0,-1,0,176.54193)"
         id="g42"><path
           id="path44"
           style="fill:#000000;fill-opacity:1;fill-rule:nonzero;stroke:#000000;stroke-width:2.25;stroke-linecap:butt;stroke-linejoin:miter;stroke-miterlimit:4;stroke-dasharray:none;stroke-opacity:1"
           d="m 111.656,130.5 c 0,10.391 -5.816,18.816 -12.992,18.816 -7.176,0 -12.992,-8.425 -12.992,-18.816 0,-10.391 5.816,-18.816 12.992,-18.816 7.176,0 12.992,8.425 12.992,18.816 z" /></g><g
         transform="matrix(1,0,0,-1,0,176.54193)"
         id="g46"><path
           id="path48"
           style="fill:#000000;fill-opacity:1;fill-rule:nonzero;stroke:#000000;stroke-width:0.75;stroke-linecap:butt;stroke-linejoin:miter;stroke-miterlimit:4;stroke-dasharray:none;stroke-opacity:1"
           d="m 91.43,110.477 c -30.75,14.363 -26.66,40.207 -31.875,47.949 9.515,-5.949 13.957,-28.137 28.66,-39.242 l 6.976,-5.707 z" /></g><g
         transform="matrix(1,0,0,-1,0,176.54193)"
         id="g50"><path
           id="path52"
           style="fill:#000000;fill-opacity:1;fill-rule:nonzero;stroke:#000000;stroke-width:0.75;stroke-linecap:butt;stroke-linejoin:miter;stroke-miterlimit:4;stroke-dasharray:none;stroke-opacity:1"
           d="m 105.898,110.477 c 30.75,14.363 26.657,40.207 31.875,47.949 -9.515,-5.949 -13.961,-28.137 -28.66,-39.242 l -6.976,-5.707 z" /></g><path
         id="path54"
         style="fill:#bed63a;fill-opacity:1;fill-rule:nonzero;stroke:none"
         d="M 30.48,159.835 H 15.238 V 16.706 H 30.477 V -0.001 H 15.238 C 6.797,-0.001 0,7.448 0,16.702 v 143.133 c 0,9.254 6.797,16.707 15.238,16.707 h 15.239 v -16.707 z" /><path
         id="path56"
         style="fill:#bed63a;fill-opacity:1;fill-rule:nonzero;stroke:none"
         d="m 167.242,16.702 h 15.238 v 143.133 h -15.238 v 16.707 h 15.238 c 8.442,0 15.243,-7.453 15.243,-16.707 V 16.706 c 0,-9.258 -6.801,-16.707 -15.243,-16.707 h -15.238 z" /><text
         id="text60"
         style="font-variant:normal;font-weight:normal;font-size:103.42569733px;font-family:Lato;-inkscape-font-specification:Lato-Regular;writing-mode:lr-tb;fill:#000000;fill-opacity:1;fill-rule:nonzero;stroke:none"
         transform="matrix(1,0,0,-1,206.78354,51.218717)"><tspan
           id="tspan58"
           y="0"
           x="0 56.056728 118.11214 147.07133 225.67487 285.3515 350.09598 376.57297 436.55988 460.96832">SPIDER 2.0</tspan></text>
<path
         id="path62"
         style="fill:#000000;fill-opacity:1;fill-rule:nonzero;stroke:none"
         d="m 99.078,36.847 -9.418,2.992 9.418,13.48 9.426,-13.48 z" /><path
         id="path64"
         style="fill:#ffffff;fill-opacity:1;fill-rule:nonzero;stroke:none"
         d="m 99.078,53.319 -0.781,-0.547 8.676,-12.414 -7.891,-2.507 -7.891,2.507 8.672,12.414 -0.785,0.547 -0.781,-0.547 0.781,0.547 -0.785,0.551 -9.418,-13.484 c -0.172,-0.25 -0.219,-0.567 -0.121,-0.856 0.098,-0.289 0.328,-0.515 0.617,-0.605 l 9.418,-2.992 c 0.188,-0.059 0.395,-0.059 0.582,0 l 9.422,2.992 c 0.289,0.093 0.519,0.316 0.617,0.605 0.098,0.289 0.051,0.606 -0.121,0.856 L 99.863,53.87 c -0.179,0.254 -0.468,0.406 -0.785,0.406 -0.312,0 -0.605,-0.152 -0.785,-0.406 z" /><path
         id="path66"
         style="fill:#000000;fill-opacity:1;fill-rule:nonzero;stroke:none"
         d="m 89.66,39.839 9.418,13.48 V 36.847 Z" /><path
         id="path68"
         style="fill:#ffffff;fill-opacity:1;fill-rule:nonzero;stroke:none"
         d="M 99.078,53.319 H 98.121 V 38.155 l -6.93,2.199 8.672,12.418 -0.785,0.547 h -0.957 0.957 L 98.293,53.87 88.875,40.386 c -0.172,-0.25 -0.219,-0.567 -0.121,-0.856 0.098,-0.289 0.328,-0.515 0.617,-0.605 l 9.418,-2.992 c 0.289,-0.09 0.609,-0.04 0.856,0.14 0.246,0.18 0.394,0.469 0.394,0.774 v 16.472 c 0,0.422 -0.269,0.789 -0.672,0.914 -0.398,0.125 -0.832,-0.019 -1.07,-0.363 z" /></g></g></svg>