<?xml version="1.0" encoding="UTF-8" standalone="no"?>
<svg
   xmlns:dc="http://purl.org/dc/elements/1.1/"
   xmlns:cc="http://creativecommons.org/ns#"
   xmlns:rdf="http://www.w3.org/1999/02/22-rdf-syntax-ns#"
   xmlns:svg="http://www.w3.org/2000/svg"
   xmlns="http://www.w3.org/2000/svg"
   xmlns:sodipodi="http://sodipodi.sourceforge.net/DTD/sodipodi-0.dtd"
   xmlns:inkscape="http://www.inkscape.org/namespaces/inkscape"
   viewBox="0 0 266.73374 235.39066"
   height="235.39066"
   width="266.73373"
   xml:space="preserve"
   id="svg2"
   version="1.1"
   sodipodi:docname="spider-compact.svg"
   inkscape:version="0.92.4 (f8dce91, 2019-08-02)"><sodipodi:namedview
   pagecolor="#ffffff"
   bordercolor="#666666"
   borderopacity="1"
   objecttolerance="10"
   gridtolerance="10"
   guidetolerance="10"
   inkscape:pageopacity="0"
   inkscape:pageshadow="2"
   inkscape:window-width="2493"
   inkscape:window-height="1385"
   id="namedview35"
   showgrid="false"
   inkscape:zoom="3.783969"
   inkscape:cx="47.037493"
   inkscape:cy="131.74996"
   inkscape:window-x="2627"
   inkscape:window-y="27"
   inkscape:window-maximized="1"
   inkscape:current-layer="svg2"
   fit-margin-top="0"
   fit-margin-left="0"
   fit-margin-right="0"
   fit-margin-bottom="0" /><metadata
   id="metadata8"><rdf:RDF><cc:Work
       rdf:about=""><dc:format>image/svg+xml</dc:format><dc:type
         rdf:resource="http://purl.org/dc/dcmitype/StillImage" /><dc:title></dc:title></cc:Work></rdf:RDF></metadata><defs
   id="defs6">
</defs><path
   id="path54"
   style="fill:#bed63a;fill-opacity:1;fill-rule:nonzero;stroke:none;stroke-width:1.33333325"
   d="M 40.639999,22.276001 H 20.317333 V 213.11466 h 20.318666 v 22.276 H 20.317333 C 9.0626664,235.39066 0,225.45866 0,213.12 V 22.276001 C 0,9.9373347 9.0626664,1.6757e-6 20.317333,1.6757e-6 H 40.635999 V 22.276001 Z"
   inkscape:connector-curvature="0" /><path
   id="path56"
   style="fill:#bed63a;fill-opacity:1;fill-rule:nonzero;stroke:none;stroke-width:1.33333325"
   d="m 226.09241,213.12 h 20.31733 V 22.276 H 226.09241 V 0 h 20.31733 c 11.256,0 20.324,9.9373328 20.324,22.276 v 190.83866 c 0,12.344 -9.068,22.276 -20.324,22.276 h -20.31733 z"
   inkscape:connector-curvature="0" /><g
   id="g1360"
   transform="matrix(1.1479953,0,0,1.1479953,-8.553457,-12.998669)"><g
     transform="translate(-9.5092629,-17.698497)"
     style="fill:#2e3131;fill-opacity:1;stroke:#2e3131;stroke-opacity:1"
     id="g1212"><path
       inkscape:connector-curvature="0"
       d="m 212.41461,104.46882 c -13.806,-2.56679 -26.93756,-5.215165 -54.95286,7.84976 -8.73446,5.38637 -10.76239,11.45407 -19.67149,32.25614 l -0.16201,3.32627 c 9.89722,-6.95241 18.63972,-25.91959 26.08504,-29.1861 7.44646,-3.26767 30.8027,-11.88034 48.70132,-14.24607 z"
       style="fill:#2e3131;fill-opacity:1;fill-rule:nonzero;stroke:#2e3131;stroke-width:0.86172646;stroke-linecap:butt;stroke-linejoin:miter;stroke-miterlimit:4;stroke-dasharray:none;stroke-opacity:1"
       id="path20" /><g
       transform="matrix(1.1489686,0,0,1.1489686,12.880136,29.507815)"
       id="g14"
       style="fill:#2e3131;fill-opacity:1;stroke:#2e3131;stroke-opacity:1"><path
         id="path16"
         style="fill:#2e3131;fill-opacity:1;fill-rule:nonzero;stroke:#2e3131;stroke-width:0.75;stroke-linecap:butt;stroke-linejoin:miter;stroke-miterlimit:4;stroke-dasharray:none;stroke-opacity:1"
         d="m 23.664,65.242 c 12.016,-2.234 23.441,-4.539 47.828,6.832 7.598,4.688 9.363,9.969 17.121,28.074 l 0.141,2.895 C 80.141,96.992 72.527,80.484 66.051,77.641 59.57,74.797 39.242,67.301 23.664,65.242 Z"
         inkscape:connector-curvature="0" /></g><g
       transform="matrix(1.1489686,0,0,1.1489686,12.880136,29.507815)"
       id="g22"
       style="fill:#2e3131;fill-opacity:1;stroke:#2e3131;stroke-opacity:1"><path
         id="path24"
         style="fill:#2e3131;fill-opacity:1;fill-rule:nonzero;stroke:#2e3131;stroke-width:0.75;stroke-linecap:butt;stroke-linejoin:miter;stroke-miterlimit:4;stroke-dasharray:none;stroke-opacity:1"
         d="m 87.613,91.059 -2.41,-5.493 C 81.93,41.012 63.574,26.406 55.875,19.273 67.824,19.617 88.73,46.965 89.355,62.398 89.98,77.832 90.16,85.301 90.16,85.301 Z"
         inkscape:connector-curvature="0" /></g><g
       transform="matrix(1.1489686,0,0,1.1489686,12.880136,29.507815)"
       id="g26"
       style="fill:#2e3131;fill-opacity:1;stroke:#2e3131;stroke-opacity:1"><path
         id="path28"
         style="fill:#2e3131;fill-opacity:1;fill-rule:nonzero;stroke:#2e3131;stroke-width:0.75;stroke-linecap:butt;stroke-linejoin:miter;stroke-miterlimit:4;stroke-dasharray:none;stroke-opacity:1"
         d="m 109.711,91.059 2.414,-5.493 c 3.273,-44.554 21.625,-59.16 29.328,-66.293 -11.949,0.344 -32.855,27.692 -33.48,43.125 -0.629,15.434 -0.805,22.903 -0.805,22.903 z"
         inkscape:connector-curvature="0" /></g><g
       transform="matrix(1.1489686,0,0,1.1489686,12.880136,29.507815)"
       id="g30"
       style="fill:#2e3131;fill-opacity:1;stroke:#2e3131;stroke-opacity:1"><path
         id="path32"
         style="fill:#2e3131;fill-opacity:1;fill-rule:nonzero;stroke:#2e3131;stroke-width:0.75;stroke-linecap:butt;stroke-linejoin:miter;stroke-miterlimit:4;stroke-dasharray:none;stroke-opacity:1"
         d="M 87.613,104.719 C 54.484,83.5 36.367,95.23 28.82,101.773 c 8.59,-2.398 30.887,-4.843 38.84,-0.269 7.949,4.578 13.731,7.711 21.965,6.832 0,0 -0.852,-2.875 -2.012,-3.617 z"
         inkscape:connector-curvature="0" /></g><g
       transform="matrix(1.1489686,0,0,1.1489686,12.880136,29.507815)"
       id="g34"
       style="fill:#2e3131;fill-opacity:1;stroke:#2e3131;stroke-opacity:1"><path
         id="path36"
         style="fill:#2e3131;fill-opacity:1;fill-rule:nonzero;stroke:#2e3131;stroke-width:0.75;stroke-linecap:butt;stroke-linejoin:miter;stroke-miterlimit:4;stroke-dasharray:none;stroke-opacity:1"
         d="m 109.711,104.719 c 33.133,-21.219 51.246,-9.489 58.797,-2.946 -8.594,-2.398 -30.887,-4.843 -38.84,-0.269 -7.953,4.578 -13.734,7.711 -21.965,6.832 0,0 0.848,-2.875 2.008,-3.617 z"
         inkscape:connector-curvature="0" /></g><g
       transform="matrix(1.1489686,0,0,1.1489686,12.880136,29.507815)"
       id="g38"
       style="fill:#2e3131;fill-opacity:1;stroke:#2e3131;stroke-opacity:1"><path
         id="path40"
         style="fill:#2e3131;fill-opacity:1;fill-rule:nonzero;stroke:#2e3131;stroke-width:2.25;stroke-linecap:butt;stroke-linejoin:miter;stroke-miterlimit:4;stroke-dasharray:none;stroke-opacity:1"
         d="m 109.445,97.285 c 0,8.692 -4.828,15.738 -10.781,15.738 -5.953,0 -10.781,-7.046 -10.781,-15.738 0,-8.691 4.828,-15.734 10.781,-15.734 5.953,0 10.781,7.043 10.781,15.734 z"
         inkscape:connector-curvature="0" /></g><g
       transform="matrix(1.1489686,0,0,1.1489686,12.880136,29.507815)"
       id="g42"
       style="fill:#2e3131;fill-opacity:1;stroke:#2e3131;stroke-opacity:1"><path
         id="path44"
         style="fill:#2e3131;fill-opacity:1;fill-rule:nonzero;stroke:#2e3131;stroke-width:2.25;stroke-linecap:butt;stroke-linejoin:miter;stroke-miterlimit:4;stroke-dasharray:none;stroke-opacity:1"
         d="m 111.656,130.5 c 0,10.391 -5.816,18.816 -12.992,18.816 -7.176,0 -12.992,-8.425 -12.992,-18.816 0,-10.391 5.816,-18.816 12.992,-18.816 7.176,0 12.992,8.425 12.992,18.816 z"
         inkscape:connector-curvature="0" /></g><g
       transform="matrix(1.1489686,0,0,1.1489686,12.880136,29.507815)"
       id="g46"
       style="fill:#2e3131;fill-opacity:1;stroke:#2e3131;stroke-opacity:1"><path
         id="path48"
         style="fill:#2e3131;fill-opacity:1;fill-rule:nonzero;stroke:#2e3131;stroke-width:0.75;stroke-linecap:butt;stroke-linejoin:miter;stroke-miterlimit:4;stroke-dasharray:none;stroke-opacity:1"
         d="m 91.43,110.477 c -30.75,14.363 -26.66,40.207 -31.875,47.949 9.515,-5.949 13.957,-28.137 28.66,-39.242 l 6.976,-5.707 z"
         inkscape:connector-curvature="0" /></g><g
       transform="matrix(1.1489686,0,0,1.1489686,12.880136,29.507815)"
       id="g50"
       style="fill:#2e3131;fill-opacity:1;stroke:#2e3131;stroke-opacity:1"><path
         id="path52"
         style="fill:#2e3131;fill-opacity:1;fill-rule:nonzero;stroke:#2e3131;stroke-width:0.75;stroke-linecap:butt;stroke-linejoin:miter;stroke-miterlimit:4;stroke-dasharray:none;stroke-opacity:1"
         d="m 105.898,110.477 c 30.75,14.363 26.657,40.207 31.875,47.949 -9.515,-5.949 -13.961,-28.137 -28.66,-39.242 l -6.976,-5.707 z"
         inkscape:connector-curvature="0" /></g></g><g
     transform="translate(-9.9895357,-25.406095)"
     style="fill:#ffffff;fill-opacity:1"
     id="g1067"><path
       id="path64"
       style="fill:#ffffff;fill-opacity:1;fill-rule:nonzero;stroke:none;stroke-width:1.14896858"
       d="m 126.71765,171.08709 -0.89735,0.62849 9.96845,14.26329 -9.06651,2.88047 -9.06651,-2.88047 9.96385,-14.26329 -0.90193,-0.62849 -0.89735,0.62849 0.89735,-0.62849 -0.90194,-0.63308 -10.82099,15.49269 c -0.19763,0.28724 -0.25162,0.65147 -0.13903,0.98352 0.1126,0.33205 0.37687,0.59172 0.70892,0.69512 l 10.82098,3.43772 c 0.21601,0.0678 0.45385,0.0678 0.6687,0 l 10.82559,-3.43772 c 0.33205,-0.10685 0.59631,-0.36307 0.70891,-0.69512 0.1126,-0.33205 0.0586,-0.69628 -0.13903,-0.98352 l -10.83018,-15.49269 c -0.20566,-0.29184 -0.53771,-0.46648 -0.90193,-0.46648 -0.35848,0 -0.69513,0.17464 -0.90194,0.46648 z"
       inkscape:connector-curvature="0" /><path
       id="path68"
       style="fill:#ffffff;fill-opacity:1;fill-rule:nonzero;stroke:none;stroke-width:1.14896858"
       d="m 126.71765,171.08709 h -1.09956 v 17.42296 l -7.96236,-2.52658 9.96385,-14.26789 -0.90193,-0.62849 h -1.09956 1.09956 l -0.90194,-0.63308 -10.82099,15.49269 c -0.19763,0.28724 -0.25162,0.65147 -0.13903,0.98352 0.1126,0.33205 0.37687,0.59172 0.70892,0.69512 l 10.82098,3.43772 c 0.33206,0.1034 0.69972,0.0459 0.98352,-0.16085 0.28265,-0.20682 0.4527,-0.53888 0.4527,-0.88931 v -18.92581 c 0,-0.48486 -0.30908,-0.90654 -0.77211,-1.05015 -0.45729,-0.14363 -0.95594,0.0218 -1.2294,0.41707 z"
       inkscape:connector-curvature="0" /></g></g><text
   id="text60-3"
   style="font-variant:normal;font-weight:normal;font-size:46.53627014px;font-family:Lato;-inkscape-font-specification:Lato-Regular;writing-mode:lr-tb;fill:#bed63a;fill-opacity:1;fill-rule:nonzero;stroke:none;stroke-width:0.44994885"
   x="6.4198074"
   y="71.09153"><tspan
     id="tspan58-6"
     x="175.85837 202.84938 213.83195"
     style="fill:#bed63a;fill-opacity:1;stroke-width:0.44994885">2.0</tspan></text>

</svg>